<?xml version="1.0" encoding="utf-8"?>
<svg viewBox="0 0 48 48" fill="none" xmlns="http://www.w3.org/2000/svg">
  <defs>
    <clipPath id="clip0_1_12">
      <rect width="48" height="48" fill="white"/>
    </clipPath>
  </defs>
  <g clip-path="url(#clip0_1_12)">
    <path d="M24 48C37.2548 48 48 37.2548 48 24C48 10.7452 37.2548 0 24 0C10.7452 0 0 10.7452 0 24C0 37.2548 10.7452 48 24 48Z" style="fill: rgb(243, 21, 27);"/>
    <path d="M 34.149 16.857 C 33.563 16.268 32.867 15.801 32.1 15.483 C 31.334 15.164 30.513 15 29.683 15 C 28.854 15 28.032 15.164 27.266 15.483 C 26.499 15.801 25.803 16.268 25.217 16.857 L 24 18.078 L 22.783 16.857 C 21.598 15.668 19.992 15.001 18.316 15.001 C 16.641 15.001 15.035 15.668 13.85 16.857 C 12.666 18.045 12 19.657 12 21.337 C 12 23.018 12.666 24.63 13.85 25.818 L 15.067 27.039 L 24 36 L 30.699 29.279 L 32.932 27.039 L 34.149 25.818 C 34.736 25.23 35.202 24.531 35.519 23.762 C 35.837 22.993 36 22.169 36 21.337 C 36 20.505 35.837 19.681 35.519 18.912 C 35.202 18.143 34.736 17.445 34.149 16.857 Z" stroke-linecap="round" stroke-linejoin="round" style="paint-order: fill; stroke: rgb(255, 255, 255); stroke-width: 0px; fill: rgb(242, 243, 246);"/>
  </g>
</svg>